<svg version="1.2" xmlns="http://www.w3.org/2000/svg" viewBox="0 0 310 70" width="310" height="70"><style>.a{fill:#00d5be}.b{fill:#fff}</style><path class="a" d="m18.8 56.3h-7.3v-38.1h8.6l15.3 24.6 0.7-0.1v-24.5h7.2v38.1h-7.7l-16.2-26.2-0.6 0.1z"/><path class="a" d="m60.7 39.6v10.4h18.2v6.3h-25.7v-38.1h25.3v6.4h-17.8v8.9h15.6v6.1z"/><path class="a" d="m101.2 56.9q-5.2 0-9.2-2.2-4-2.1-6.3-6.5-2.2-4.4-2.2-10.9 0-6.5 2.2-10.9 2.3-4.4 6.3-6.5 4-2.2 9.2-2.2 5.2 0 9.2 2.1 4 2.2 6.3 6.6 2.2 4.4 2.2 10.9 0 6.5-2.2 10.9-2.3 4.4-6.3 6.5-4 2.2-9.2 2.2zm0-6.6q4.9 0 7.4-3.1 2.6-3.1 2.6-9.9 0-6.8-2.6-9.9-2.5-3.2-7.4-3.2-4.9 0-7.4 3.2-2.6 3.1-2.6 9.9 0 6.8 2.6 9.9 2.5 3.1 7.4 3.1z"/><path class="b" d="m151.5 18.2q9.3 0.1 14.1 4.8 4.9 4.8 4.9 14.3 0 9.4-4.9 14.2-4.8 4.8-14.1 4.8h-13.7v-38.1zm-0.4 31.8q5.8 0 8.8-3 2.9-3 2.9-9.7 0-6.7-2.9-9.7-3-3-8.8-3h-5.8v25.4z"/><path class="b" d="m181.3 24.2q-2 0-3.2-1.2-1.2-1.2-1.2-3.1 0-1.8 1.2-3 1.2-1.2 3.2-1.2 1.3 0 2.3 0.5 1 0.6 1.6 1.5 0.5 1 0.5 2.2 0 1.2-0.5 2.2-0.6 1-1.6 1.5-1 0.6-2.3 0.6zm-3.6 32.1v-28.7h7.2v28.7z"/><path class="b" d="m203.9 68.5q-7.1 0-10.5-2.1-3.4-2-3.4-5.8 0-2.2 1.5-3.7 1.4-1.4 4.1-1.9v-0.6q-1.4-0.9-2.1-1.9-0.6-1.1-0.6-2.5 0-3.5 4.5-4.7v-0.6q-2.3-1.3-3.5-3.2-1.2-2-1.1-4.8 0-2.9 1.3-5 1.3-2.2 3.8-3.4 2.6-1.2 6.1-1.2 3.6 0 5.7 1.2 1.4-1.9 1.6-4.4l0.5-0.4 5.2 1.3q-0.3 2.1-1.2 3.4-1 1.4-3 2.5v0.6q2.4 2.1 2.4 6 0 2.6-1.3 4.7-1.3 2.1-3.9 3.4-2.5 1.2-6 1.2h-1.1q-1-0.1-1.5-0.1-0.9 0-1.5 0.6-0.6 0.5-0.6 1.3 0 0.9 0.8 1.4 0.7 0.5 2.1 0.6l6.4 0.2q9.6 0.3 9.6 8.2 0 2.8-1.4 5-1.5 2.2-4.7 3.4-3.1 1.3-8.2 1.3zm0.1-27q2.1 0 3.3-1.2 1.1-1.2 1.1-3.5 0-2.2-1.1-3.4-1.2-1.3-3.3-1.3-2.1 0-3.2 1.3-1.2 1.2-1.2 3.4 0 2.3 1.2 3.5 1.1 1.2 3.2 1.2zm-0.1 21.8q3.7 0 5.4-1.1 1.7-1 1.7-2.7 0-1.3-0.9-2-0.9-0.6-2.7-0.6l-5.7-0.3q-0.3 0-0.5 0-0.3-0.1-0.5-0.1-1.8 0-2.8 0.8-0.9 0.8-0.9 2.2 0 1.8 1.7 2.8 1.8 1 5.2 1z"/><path class="b" d="m226.6 24.2q-1.9 0-3.1-1.2-1.3-1.2-1.3-3.1 0-1.8 1.3-3 1.2-1.2 3.1-1.2 1.3 0 2.3 0.5 1 0.6 1.6 1.5 0.6 1 0.6 2.2 0 1.2-0.6 2.2-0.6 1-1.6 1.5-1 0.6-2.3 0.6zm-3.6 32.1v-28.7h7.2v28.7z"/><path class="b" d="m254.2 49.5l1.8 5.3q-1.1 1-2.9 1.5-1.8 0.6-4 0.6-4.7 0-7.1-2.6-2.4-2.5-2.4-7.3v-13.7h-4.4v-5.7h4.4v-5.6l7.2-1.2v6.8h8.2v5.7h-8.2v13.1q0 2.2 0.9 3.1 0.9 1 2.6 1 1.9 0 3.3-1z"/><path class="b" d="m267.9 56.9q-2.8 0-4.8-1-2.1-1-3.2-3-1-2-1-4.8 0-2.5 1-4.2 1.1-1.8 3.4-2.9 2.3-1.1 6-1.7 2.6-0.4 3.9-0.9 1.4-0.5 1.8-1.1 0.5-0.6 0.5-1.6 0-1.4-0.9-2.1-1-0.7-3.2-0.7-2.4 0-4.6 1-2.2 1.1-3.8 2.8h-0.5l-3-4.5q2.2-2.4 5.3-3.8 3.2-1.3 6.9-1.3 5.7 0 8.3 2.4 2.5 2.4 2.5 6.9v12.4q0 2 1.7 1.9 0.7 0.1 1.3-0.2l0.4 0.1 0.5 5q-0.6 0.4-1.7 0.7-1.1 0.2-2.3 0.2-2.6 0-4.1-0.9-1.4-1-2-3.1l-0.6-0.1q-2.1 4.5-7.8 4.5zm2.3-5.4q2.5 0 4-1.7 1.5-1.7 1.5-4.7v-2.9l-0.5-0.1q-0.7 0.5-1.8 0.9-1 0.3-3 0.7-2.3 0.4-3.4 1.3-1 1-1 2.7 0 1.9 1.1 2.8 1.1 1 3.1 1z"/><path class="b" d="m298.9 56.9q-3.9 0-5.9-2.1-2.1-2.1-2.1-6.4v-32.3h7.2v32q0 2.6 2.2 2.6 0.6 0.1 1.3-0.2l0.4 0.1 0.7 5.6q-0.6 0.3-1.6 0.5-1 0.2-2.2 0.2z"/></svg>