<svg width="155" height="152" viewBox="0 0 155 152" fill="none" xmlns="http://www.w3.org/2000/svg">
<g filter="url(#filter0_d_166_2061)">
<circle cx="80" cy="77" r="50" fill="#57BCA8"/>
</g>
<g filter="url(#filter1_d_166_2061)">
<circle cx="71" cy="71" r="50" fill="#E9EFEE"/>
</g>
<path d="M76.5042 55.0488C77.8101 55.0488 78.8984 55.4997 79.7691 56.4014C80.6397 57.3032 81.0751 58.3759 81.0751 59.6197V90.1234C81.0751 91.3672 80.6397 92.44 79.7691 93.3417C78.8984 94.2435 77.8101 94.6943 76.5042 94.6943H57.1012C55.8574 94.6943 54.7846 94.2435 53.8829 93.3417C52.9811 92.44 52.5303 91.3672 52.5303 90.1234V59.6197C52.5303 58.8113 52.7324 58.0494 53.1366 57.3343C53.5408 56.6191 54.1005 56.0594 54.8157 55.6552C55.5309 55.2509 56.2927 55.0488 57.1012 55.0488H76.5042ZM57.0079 82.8473C57.0079 83.0961 57.0701 83.3293 57.1945 83.547C57.3188 83.7646 57.4899 83.9356 57.7075 84.06C57.9252 84.1844 58.1584 84.2466 58.4071 84.2466H75.1049C75.5402 84.2466 75.8823 84.1067 76.131 83.8268C76.3798 83.547 76.5042 83.2205 76.5042 82.8473C76.5042 82.4742 76.3798 82.1477 76.131 81.8678C75.8823 81.588 75.5402 81.4481 75.1049 81.4481H58.4071C58.2206 81.4481 58.0496 81.4947 57.8941 81.588C57.7386 81.6813 57.5987 81.7901 57.4743 81.9145C57.3499 82.0389 57.2411 82.1788 57.1478 82.3343C57.0545 82.4897 57.0079 82.6608 57.0079 82.8473ZM57.1012 78.463C57.1012 78.7118 57.1634 78.945 57.2877 79.1626C57.4121 79.3803 57.5831 79.5513 57.8008 79.6757C58.0185 79.8001 58.2517 79.8623 58.5004 79.8623H75.1982C75.5713 79.8623 75.8978 79.7223 76.1777 79.4425C76.4575 79.1626 76.5975 78.8361 76.5975 78.463C76.5975 78.0899 76.4575 77.7634 76.1777 77.4835C75.8978 77.2037 75.5713 77.0637 75.1982 77.0637H58.5004C58.1273 77.0637 57.8008 77.2037 57.5209 77.4835C57.2411 77.7634 57.1012 78.0899 57.1012 78.463ZM75.1982 88.5376C75.5713 88.5376 75.8978 88.4132 76.1777 88.1645C76.4575 87.9157 76.5975 87.5892 76.5975 87.185C76.5975 86.7808 76.4575 86.4387 76.1777 86.1589C75.8978 85.879 75.5713 85.7391 75.1982 85.7391H69.9743C69.6012 85.7391 69.2747 85.879 68.9948 86.1589C68.715 86.4387 68.5751 86.7808 68.5751 87.185C68.5751 87.5892 68.715 87.9157 68.9948 88.1645C69.2747 88.4132 69.6012 88.5376 69.9743 88.5376H75.1982ZM74.6385 65.4966C75.1982 65.4966 75.6646 65.2945 76.0377 64.8902C76.4109 64.486 76.5975 64.004 76.5975 63.4443C76.5975 62.8846 76.4109 62.4027 76.0377 61.9985C75.6646 61.5942 75.1982 61.3921 74.6385 61.3921C74.0788 61.3921 73.5968 61.5942 73.1926 61.9985C72.7884 62.4027 72.5863 62.8846 72.5863 63.4443L67.8288 68.2018C67.7666 68.2018 67.7044 68.2018 67.6422 68.2018C67.2691 68.2018 66.927 68.2951 66.6161 68.4817L65.0303 67.3623C64.9681 66.9269 64.7504 66.5538 64.3773 66.2429C64.0042 65.9319 63.5688 65.7764 63.0713 65.7764C62.5116 65.7764 62.0297 65.963 61.6254 66.3361C61.2212 66.7093 61.0191 67.1757 61.0191 67.7354C61.0191 67.7976 61.0191 67.8598 61.0191 67.922L59.0601 70.254C58.5004 70.254 58.034 70.4562 57.6609 70.8604C57.2877 71.2646 57.1012 71.7466 57.1012 72.3063C57.1012 72.866 57.3033 73.3324 57.7075 73.7055C58.1117 74.0787 58.5937 74.2652 59.1534 74.2652C59.7131 74.2652 60.1951 74.0787 60.5993 73.7055C61.0035 73.3324 61.2057 72.866 61.2057 72.3063C61.2057 72.2441 61.1746 72.1819 61.1124 72.1197L63.1646 69.7876C63.289 69.7876 63.4134 69.7565 63.5377 69.6943L65.4034 71.0003C65.7144 72.1197 66.4295 72.6794 67.5489 72.6794C68.1708 72.6794 68.6994 72.4618 69.1348 72.0264C69.5701 71.5911 69.7877 71.0625 69.7877 70.4406C69.7877 70.3784 69.7877 70.2851 69.7877 70.1608L74.5452 65.4966H74.6385ZM84.7131 46.9332C86.0191 46.9332 87.1385 47.3996 88.0713 48.3324C89.0042 49.2652 89.4706 50.3536 89.4706 51.5973V84.713C89.4706 86.019 89.0042 87.1384 88.0713 88.0712C87.1385 89.004 86.0191 89.4705 84.7131 89.4705C84.1534 89.4705 83.8736 89.1906 83.8736 88.6309L83.7803 57.2876C83.7803 56.0439 83.3294 54.9711 82.4277 54.0694C81.5259 53.1676 80.4532 52.7167 79.2094 52.7167H59.7131C59.1534 52.7167 58.8736 52.4369 58.8736 51.8772V51.5973C58.8736 50.3536 59.34 49.2652 60.2728 48.3324C61.2057 47.3996 62.294 46.9332 63.5377 46.9332H84.7131Z" fill="#57BCA8"/>
<defs>
<filter id="filter0_d_166_2061" x="9" y="6" width="146" height="146" filterUnits="userSpaceOnUse" color-interpolation-filters="sRGB">
<feFlood flood-opacity="0" result="BackgroundImageFix"/>
<feColorMatrix in="SourceAlpha" type="matrix" values="0 0 0 0 0 0 0 0 0 0 0 0 0 0 0 0 0 0 127 0" result="hardAlpha"/>
<feMorphology radius="3" operator="dilate" in="SourceAlpha" result="effect1_dropShadow_166_2061"/>
<feOffset dx="2" dy="2"/>
<feGaussianBlur stdDeviation="10"/>
<feComposite in2="hardAlpha" operator="out"/>
<feColorMatrix type="matrix" values="0 0 0 0 0 0 0 0 0 0 0 0 0 0 0 0 0 0 0.25 0"/>
<feBlend mode="normal" in2="BackgroundImageFix" result="effect1_dropShadow_166_2061"/>
<feBlend mode="normal" in="SourceGraphic" in2="effect1_dropShadow_166_2061" result="shape"/>
</filter>
<filter id="filter1_d_166_2061" x="0" y="0" width="146" height="146" filterUnits="userSpaceOnUse" color-interpolation-filters="sRGB">
<feFlood flood-opacity="0" result="BackgroundImageFix"/>
<feColorMatrix in="SourceAlpha" type="matrix" values="0 0 0 0 0 0 0 0 0 0 0 0 0 0 0 0 0 0 127 0" result="hardAlpha"/>
<feMorphology radius="3" operator="dilate" in="SourceAlpha" result="effect1_dropShadow_166_2061"/>
<feOffset dx="2" dy="2"/>
<feGaussianBlur stdDeviation="10"/>
<feComposite in2="hardAlpha" operator="out"/>
<feColorMatrix type="matrix" values="0 0 0 0 0 0 0 0 0 0 0 0 0 0 0 0 0 0 0.25 0"/>
<feBlend mode="normal" in2="BackgroundImageFix" result="effect1_dropShadow_166_2061"/>
<feBlend mode="normal" in="SourceGraphic" in2="effect1_dropShadow_166_2061" result="shape"/>
</filter>
</defs>
</svg>
