<svg version="1.2" xmlns="http://www.w3.org/2000/svg" viewBox="0 0 1000 1000" width="1000" height="1000">
	<title>5052907</title>
	<style>
		.s0 { fill: #407bff } 
		.s1 { opacity: .9;fill: #ffffff } 
		.s2 { fill: #f5f5f5 } 
		.s3 { opacity: .7;fill: #ffffff } 
		.s4 { fill: #ffffff } 
		.s5 { fill: #eec1bb } 
		.s6 { opacity: .1;fill: #000000 } 
		.s7 { fill: #263238 } 
		.s8 { fill: #d4827d } 
		.s9 { fill: #ffc3bd } 
		.s10 { opacity: .5;fill: #ffffff } 
		.s11 { opacity: .8;fill: #ffffff } 
		.s12 { opacity: .6;fill: #ffffff } 
		.s13 { opacity: .2;fill: #ffffff } 
		.s14 { opacity: .2;fill: #000000 } 
		.s15 { opacity: .3;fill: #000000 } 
		.s16 { opacity: .3;fill: #ffffff } 
		.s17 { fill: #b97964 } 
		.s18 { fill: #a24e3f } 
		.s19 { opacity: .4;fill: #ffffff } 
		.s20 { opacity: .2;fill: #263238 } 
		.s21 { opacity: .4;fill: #000000 } 
	</style>
	<g id="Background Simple">
		<g id="&lt;Group&gt;">
			<path id="&lt;Path&gt;" class="s0" d="m446.7 363.2c-33.5 14.3-106.5-24.3-141.8-33.1-89.2-22.2-192.9 15.2-184.1 139.9 12 170.5 263.8 357.9 526.9 268.2 132.9-45.3 241.8-172 241.5-323.9-0.5-276.1-262.3-285.5-344.5-216.2-77.1 64.8-53.8 146.3-98 165.1z"/>
			<path id="&lt;Path&gt;" class="s1" d="m446.7 363.2c-33.5 14.3-106.5-24.3-141.8-33.1-89.2-22.2-192.9 15.2-184.1 139.9 12 170.5 263.8 357.9 526.9 268.2 132.9-45.3 241.8-172 241.5-323.9-0.5-276.1-262.3-285.5-344.5-216.2-77.1 64.8-53.8 146.3-98 165.1z"/>
		</g>
	</g>
	<g id="Shadow">
		<path id="&lt;Path&gt; 1 " class="s2" d="m878.1 824.8c0 12.5-173.6 22.6-387.7 22.6-214.2 0-387.8-10.1-387.8-22.6 0-12.5 173.6-22.7 387.8-22.7 214.1 0 387.7 10.2 387.7 22.7z"/>
	</g>
	<g id="Screen">
		<g id="&lt;Group&gt;">
			<g id="&lt;Group&gt;">
				<path id="&lt;Path&gt;" class="s0" d="m585.3 239.3h-48c-3.1 0-6 2.3-6.6 5.4l-0.4 1.5c-1.6 7.6-8.6 13.3-16.2 13.3h-45.6c-7.7 0-13.7-5.7-14-13.3l-0.1-1.5c-0.1-3.1-2.5-5.4-5.7-5.4h-47.9c-16 0-30.1 12.9-31.5 28.9l-38.6 441.1c-1.4 16 10.4 29 26.4 29h184.5c16 0 30.1-13 31.5-29l38.6-441.1c1.4-16-10.4-28.9-26.4-28.9z"/>
				<path id="&lt;Path&gt;" class="s3" d="m585.3 239.3h-48c-3.1 0-6 2.3-6.6 5.4l-0.4 1.5c-1.6 7.6-8.6 13.3-16.2 13.3h-45.6c-7.7 0-13.7-5.7-14-13.3l-0.1-1.5c-0.1-3.1-2.5-5.4-5.7-5.4h-47.9c-16 0-30.1 12.9-31.5 28.9l-38.6 441.1c-1.4 16 10.4 29 26.4 29h184.5c16 0 30.1-13 31.5-29l38.6-441.1c1.4-16-10.4-28.9-26.4-28.9z"/>
			</g>
			<path id="&lt;Path&gt;" class="s4" d="m566.6 442.2h-98c-3.5 0-6.2-2.9-5.9-6.5l7.4-84.4c0.3-3.5 3.5-6.4 7-6.4h98c3.6 0 6.2 2.9 5.9 6.4l-7.4 84.4c-0.3 3.6-3.4 6.5-7 6.5z"/>
			<path id="&lt;Path&gt;" class="s4" d="m534 706h-164c-8.8 0-15.4-7.2-14.6-16 0.8-8.8 8.6-16 17.4-16h164c8.8 0 15.3 7.2 14.6 16-0.8 8.8-8.6 16-17.4 16z"/>
			<g id="&lt;Group&gt;">
				<path id="&lt;Path&gt;" class="s4" d="m547.1 321.7h-150.5c-4.9 0-8.6-4-8.2-9l1.2-14c0.5-4.9 4.8-9 9.8-9h150.5c4.9 0 8.6 4.1 8.2 9l-1.3 14c-0.4 5-4.8 9-9.7 9z"/>
				<g id="&lt;Group&gt;">
					<path id="&lt;Path&gt;" class="s4" d="m577.7 298.2c-0.2 1.4-1.4 2.5-2.8 2.5-1.3 0-2.4-1.1-2.2-2.5 0.1-1.3 1.3-2.4 2.7-2.4 1.4 0 2.4 1.1 2.3 2.4z"/>
					<path id="&lt;Path&gt;" class="s4" d="m577 305.7c-0.1 1.4-1.3 2.5-2.7 2.5-1.4 0-2.4-1.1-2.3-2.5 0.1-1.4 1.3-2.5 2.7-2.5 1.4 0 2.4 1.1 2.3 2.5z"/>
					<path id="&lt;Path&gt;" class="s4" d="m576.4 313.2c-0.2 1.4-1.4 2.5-2.8 2.5-1.3 0-2.4-1.1-2.2-2.5 0.1-1.4 1.3-2.5 2.7-2.5 1.4 0 2.4 1.1 2.3 2.5z"/>
				</g>
			</g>
			<path id="&lt;Path&gt;" class="s4" d="m554.4 581.4h-183c-3.6 0-6.2-2.9-5.9-6.5l8.4-96.3c0.3-3.5 3.4-6.4 7-6.4h183.1c3.5 0 6.2 2.9 5.8 6.4l-8.4 96.3c-0.3 3.6-3.4 6.5-7 6.5z"/>
			<g id="&lt;Group&gt;">
				<g id="&lt;Group&gt;">
					<path id="&lt;Path&gt;" class="s4" d="m421.7 601.5h-57c-0.8 0-1.5-0.7-1.4-1.6 0.1-0.9 0.8-1.6 1.7-1.6h57c0.9 0 1.5 0.7 1.4 1.6 0 0.9-0.8 1.6-1.7 1.6z"/>
				</g>
				<g id="&lt;Group&gt;">
					<path id="&lt;Path&gt;" class="s4" d="m493 601.5h-61.2c-0.9 0-1.5-0.7-1.5-1.6 0.1-0.9 0.9-1.6 1.7-1.6h61.2c0.9 0 1.5 0.7 1.5 1.6-0.1 0.9-0.9 1.6-1.7 1.6z"/>
				</g>
				<g id="&lt;Group&gt;">
					<path id="&lt;Path&gt;" class="s4" d="m402.1 615.4h-38.6c-0.9 0-1.5-0.7-1.4-1.6 0.1-0.9 0.8-1.6 1.7-1.6h38.5c0.9 0 1.6 0.7 1.5 1.6-0.1 0.9-0.9 1.6-1.7 1.6z"/>
				</g>
				<g id="&lt;Group&gt;">
					<path id="&lt;Path&gt;" class="s4" d="m475.3 615.4h-63.2c-0.9 0-1.5-0.7-1.4-1.6 0.1-0.9 0.8-1.6 1.7-1.6h63.1c0.9 0 1.6 0.7 1.5 1.6-0.1 0.9-0.9 1.6-1.7 1.6z"/>
				</g>
				<g id="&lt;Group&gt;">
					<path id="&lt;Path&gt;" class="s4" d="m465.1 629.3h-102.8c-0.9 0-1.5-0.7-1.4-1.6 0-0.9 0.8-1.6 1.7-1.6h102.8c0.8 0 1.5 0.7 1.4 1.6-0.1 0.9-0.9 1.6-1.7 1.6z"/>
				</g>
				<g id="&lt;Group&gt;">
					<path id="&lt;Path&gt;" class="s4" d="m481.9 629.3h-6.8c-0.8 0-1.5-0.7-1.4-1.6 0.1-0.9 0.8-1.6 1.7-1.6h6.8c0.9 0 1.5 0.7 1.4 1.6 0 0.9-0.8 1.6-1.7 1.6z"/>
				</g>
				<g id="&lt;Group&gt;">
					<path id="&lt;Path&gt;" class="s4" d="m409.1 643.2h-48c-0.9 0-1.5-0.8-1.5-1.6 0.1-0.9 0.9-1.6 1.8-1.6h47.9c0.9 0 1.6 0.7 1.5 1.6-0.1 0.8-0.9 1.6-1.7 1.6z"/>
				</g>
				<g id="&lt;Group&gt;">
					<path id="&lt;Path&gt;" class="s4" d="m478.9 643.2h-59.8c-0.8 0-1.5-0.8-1.4-1.6 0.1-0.9 0.8-1.6 1.7-1.6h59.7c0.9 0 1.6 0.7 1.5 1.6-0.1 0.8-0.9 1.6-1.7 1.6z"/>
				</g>
				<g id="&lt;Group&gt;">
					<path id="&lt;Path&gt;" class="s4" d="m419 657h-59.1c-0.9 0-1.5-0.7-1.5-1.5 0.1-0.9 0.9-1.6 1.7-1.6h59.1c0.9 0 1.5 0.7 1.5 1.6-0.1 0.8-0.9 1.5-1.7 1.5z"/>
				</g>
				<g id="&lt;Group&gt;">
					<path id="&lt;Path&gt;" class="s4" d="m476.6 657h-47.6c-0.9 0-1.5-0.7-1.4-1.5 0-0.9 0.8-1.6 1.7-1.6h47.6c0.9 0 1.5 0.7 1.4 1.6-0.1 0.8-0.8 1.5-1.7 1.5z"/>
				</g>
			</g>
			<g id="&lt;Group&gt;">
				<g id="&lt;Group&gt;">
					<path id="&lt;Path&gt;" class="s0" d="m564.3 434.2c-0.8 0.8-2.1 0.9-2.9 0.1l-81.8-78.1c-0.8-0.7-0.8-2 0-2.8 0.9-0.8 2.1-0.9 2.9-0.2l81.8 78.1c0.8 0.8 0.8 2 0 2.9z"/>
				</g>
				<g id="&lt;Group&gt;">
					<path id="&lt;Path&gt;" class="s0" d="m472.3 434.1c-0.6-0.8-0.4-2.1 0.5-2.8l41.7-34.1c0.9-0.8 2.2-0.7 2.8 0.1 0.7 0.9 0.5 2.1-0.4 2.9l-41.8 34.1c-0.8 0.7-2.1 0.7-2.8-0.2z"/>
				</g>
				<g id="&lt;Group&gt;">
					<path id="&lt;Path&gt;" class="s0" d="m526.3 390c-0.7-0.8-0.5-2.1 0.4-2.8l41.9-34.2c0.8-0.8 2.1-0.7 2.8 0.2 0.6 0.8 0.4 2-0.5 2.8l-41.8 34.2c-0.9 0.7-2.1 0.6-2.8-0.2z"/>
				</g>
				<g id="&lt;Group&gt;" style="opacity: .7">
					<path id="&lt;Path&gt;" class="s4" d="m564.3 434.2c-0.8 0.8-2.1 0.9-2.9 0.1l-81.8-78.1c-0.8-0.7-0.8-2 0-2.8 0.9-0.8 2.1-0.9 2.9-0.2l81.8 78.1c0.8 0.8 0.8 2 0 2.9z"/>
				</g>
				<g id="&lt;Group&gt;" style="opacity: .7">
					<path id="&lt;Path&gt;" class="s4" d="m472.3 434.1c-0.6-0.8-0.4-2.1 0.5-2.8l41.7-34.1c0.9-0.8 2.2-0.7 2.8 0.1 0.7 0.9 0.5 2.1-0.4 2.9l-41.8 34.1c-0.8 0.7-2.1 0.7-2.8-0.2z"/>
				</g>
				<g id="&lt;Group&gt;" style="opacity: .7">
					<path id="&lt;Path&gt;" class="s4" d="m526.3 390c-0.7-0.8-0.5-2.1 0.4-2.8l41.9-34.2c0.8-0.8 2.1-0.7 2.8 0.2 0.6 0.8 0.4 2-0.5 2.8l-41.8 34.2c-0.9 0.7-2.1 0.6-2.8-0.2z"/>
				</g>
			</g>
		</g>
	</g>
	<g id="Icons">
		<g id="&lt;Group&gt;">
			<path id="&lt;Compound Path&gt;" fill-rule="evenodd" class="s0" d="m341 239.2v25.9c0 5.3-4.3 9.5-9.5 9.5h-25.9c-5.3 0-9.5-4.2-9.5-9.5v-25.9c0-5.3 4.2-9.5 9.5-9.5h25.9c5.2 0 9.5 4.2 9.5 9.5zm-28.5 6.8c0 3.9 2.1 7 6 7 3.9 0 6-3.1 6-7 0-3.9-2.1-7.1-6-7.1-3.9 0-6 3.2-6 7.1zm22.3 19.1l-2-5.4c-1.3-3.6-4.6-5.9-8.4-5.9h-11.8c-3.7 0-7.1 2.3-8.4 5.9l-2 5.4q0.3 0.3 0.7 0.3h31.3q0.4 0 0.6-0.3z"/>
			<path id="&lt;Compound Path&gt;" fill-rule="evenodd" class="s3" d="m341 239.2v25.9c0 5.3-4.3 9.5-9.5 9.5h-25.9c-5.3 0-9.5-4.2-9.5-9.5v-25.9c0-5.3 4.2-9.5 9.5-9.5h25.9c5.2 0 9.5 4.2 9.5 9.5zm-28.5 6.8c0 3.9 2.1 7 6 7 3.9 0 6-3.1 6-7 0-3.9-2.1-7.1-6-7.1-3.9 0-6 3.2-6 7.1zm22.3 19.1l-2-5.4c-1.3-3.6-4.6-5.9-8.4-5.9h-11.8c-3.7 0-7.1 2.3-8.4 5.9l-2 5.4q0.3 0.3 0.7 0.3h31.3q0.4 0 0.6-0.3z"/>
		</g>
		<g id="&lt;Group&gt;">
			<g id="&lt;Group&gt;">
				<path id="&lt;Compound Path&gt;" fill-rule="evenodd" class="s0" d="m252.1 349v19.7c0 7.1-5.7 12.8-12.8 12.8h-19.7c-7 0-12.8-5.7-12.8-12.8v-19.7c0-7 5.8-12.8 12.8-12.8h19.7c7.1 0 12.8 5.8 12.8 12.8zm-14.5 7.4c0-4.5-3.7-8.1-8.1-8.1-4.5 0-8.1 3.6-8.1 8.1 0 4.4 8.1 13.2 8.1 13.2 0 0 8.1-8.8 8.1-13.2z"/>
				<path id="&lt;Path&gt;" class="s0" d="m229.5 352.7c-2.1 0-3.7 1.6-3.7 3.7 0 2 1.6 3.7 3.7 3.7 2 0 3.7-1.7 3.7-3.7 0-2.1-1.7-3.7-3.7-3.7z"/>
			</g>
			<g id="&lt;Group&gt;" style="opacity: .7">
				<path id="&lt;Compound Path&gt;" fill-rule="evenodd" class="s4" d="m252.1 349v19.7c0 7.1-5.7 12.8-12.8 12.8h-19.7c-7 0-12.8-5.7-12.8-12.8v-19.7c0-7 5.8-12.8 12.8-12.8h19.7c7.1 0 12.8 5.8 12.8 12.8zm-14.5 7.4c0-4.5-3.7-8.1-8.1-8.1-4.5 0-8.1 3.6-8.1 8.1 0 4.4 8.1 13.2 8.1 13.2 0 0 8.1-8.8 8.1-13.2z"/>
				<path id="&lt;Path&gt;" class="s4" d="m229.5 352.7c-2.1 0-3.7 1.6-3.7 3.7 0 2 1.6 3.7 3.7 3.7 2 0 3.7-1.7 3.7-3.7 0-2.1-1.7-3.7-3.7-3.7z"/>
			</g>
		</g>
		<g id="&lt;Group&gt;">
			<g id="&lt;Group&gt;">
				<path id="&lt;Path&gt;" class="s0" d="m671.4 280.5l13.2-8.6-13.2-8.5z"/>
				<path id="&lt;Compound Path&gt;" fill-rule="evenodd" class="s0" d="m699.1 259.4v25.1c0 5.9-4.8 10.7-10.7 10.7h-25.1c-5.9 0-10.7-4.8-10.7-10.7v-25.1c0-5.9 4.8-10.7 10.7-10.7h25.1c5.9 0 10.7 4.8 10.7 10.7zm-6.5 12.5c0-9.2-7.5-16.7-16.8-16.7-9.2 0-16.7 7.5-16.7 16.7 0 9.3 7.5 16.8 16.7 16.8 9.3 0 16.8-7.5 16.8-16.8z"/>
			</g>
			<g id="&lt;Group&gt;" style="opacity: .7">
				<path id="&lt;Path&gt;" class="s4" d="m671.4 280.5l13.2-8.6-13.2-8.5z"/>
				<path id="&lt;Compound Path&gt;" fill-rule="evenodd" class="s4" d="m699.1 259.4v25.1c0 5.9-4.8 10.7-10.7 10.7h-25.1c-5.9 0-10.7-4.8-10.7-10.7v-25.1c0-5.9 4.8-10.7 10.7-10.7h25.1c5.9 0 10.7 4.8 10.7 10.7zm-6.5 12.5c0-9.2-7.5-16.7-16.8-16.7-9.2 0-16.7 7.5-16.7 16.7 0 9.3 7.5 16.8 16.7 16.8 9.3 0 16.8-7.5 16.8-16.8z"/>
			</g>
		</g>
	</g>
	<g id="Gears">
		<g id="&lt;Group&gt;">
			<path id="&lt;Compound Path&gt;" fill-rule="evenodd" class="s0" d="m713 346.6l3 1.6q-0.4 2.2-1.1 4.2h-3.5q-0.6 1.4-1.5 2.6l1.7 3q-1.3 1.7-3 3.1l-3-1.8q-1.2 0.9-2.6 1.5v3.5q-2 0.8-4.2 1.1l-1.7-3q-0.7 0-1.5 0.1-0.8-0.1-1.5-0.1l-1.7 3q-2.2-0.3-4.2-1.1l0.1-3.5q-1.4-0.6-2.7-1.5l-3 1.8q-1.7-1.4-3-3.1l1.7-3q-0.8-1.2-1.5-2.6h-3.4q-0.8-2-1.2-4.2l3-1.6q0-0.8 0-1.6 0-0.8 0-1.5l-3-1.7q0.4-2.2 1.2-4.2l3.4 0.1q0.7-1.4 1.5-2.7l-1.7-2.9q1.3-1.7 3-3.1l3 1.8q1.3-0.9 2.7-1.6l-0.1-3.4q2-0.8 4.2-1.2l1.7 3.1q0.7-0.1 1.5-0.1 0.8 0 1.5 0.1l1.7-3.1q2.2 0.4 4.2 1.2v3.4q1.4 0.7 2.6 1.6l3-1.8q1.7 1.4 3 3.1l-1.7 2.9q0.9 1.3 1.5 2.7l3.5-0.1q0.7 2 1.1 4.2l-3 1.7q0 0.7 0 1.5 0 0.8 0 1.6zm-5.6-1.6c0-6.5-5.3-11.8-11.8-11.8-6.5 0-11.8 5.3-11.8 11.8 0 6.6 5.3 11.9 11.8 11.9 6.5 0 11.8-5.3 11.8-11.9z"/>
			<path id="&lt;Compound Path&gt;" fill-rule="evenodd" class="s3" d="m713 346.6l3 1.6q-0.4 2.2-1.1 4.2h-3.5q-0.6 1.4-1.5 2.6l1.7 3q-1.3 1.7-3 3.1l-3-1.8q-1.2 0.9-2.6 1.5v3.5q-2 0.8-4.2 1.1l-1.7-3q-0.7 0-1.5 0.1-0.8-0.1-1.5-0.1l-1.7 3q-2.2-0.3-4.2-1.1l0.1-3.5q-1.4-0.6-2.7-1.5l-3 1.8q-1.7-1.4-3-3.1l1.7-3q-0.8-1.2-1.5-2.6h-3.4q-0.8-2-1.2-4.2l3-1.6q0-0.8 0-1.6 0-0.8 0-1.5l-3-1.7q0.4-2.2 1.2-4.2l3.4 0.1q0.7-1.4 1.5-2.7l-1.7-2.9q1.3-1.7 3-3.1l3 1.8q1.3-0.9 2.7-1.6l-0.1-3.4q2-0.8 4.2-1.2l1.7 3.1q0.7-0.1 1.5-0.1 0.8 0 1.5 0.1l1.7-3.1q2.2 0.4 4.2 1.2v3.4q1.4 0.7 2.6 1.6l3-1.8q1.7 1.4 3 3.1l-1.7 2.9q0.9 1.3 1.5 2.7l3.5-0.1q0.7 2 1.1 4.2l-3 1.7q0 0.7 0 1.5 0 0.8 0 1.6zm-5.6-1.6c0-6.5-5.3-11.8-11.8-11.8-6.5 0-11.8 5.3-11.8 11.8 0 6.6 5.3 11.9 11.8 11.9 6.5 0 11.8-5.3 11.8-11.9z"/>
		</g>
		<g id="&lt;Group&gt;">
			<path id="&lt;Compound Path&gt;" fill-rule="evenodd" class="s0" d="m667.4 406.8l4.5 2.5q-0.5 3.3-1.7 6.3l-5.2-0.1q-0.9 2.1-2.3 4l2.7 4.4q-2.1 2.5-4.6 4.6l-4.4-2.7q-1.9 1.3-4 2.3l0.1 5.2q-3 1.1-6.3 1.7l-2.5-4.6q-1.1 0.2-2.3 0.2-1.2 0-2.3-0.2l-2.5 4.6q-3.3-0.6-6.3-1.7l0.1-5.2q-2.1-1-4-2.3l-4.4 2.7q-2.5-2.1-4.6-4.6l2.7-4.4q-1.4-1.9-2.3-4l-5.2 0.1q-1.2-3-1.7-6.3l4.5-2.5q-0.1-1.2-0.1-2.3 0-1.2 0.1-2.3l-4.5-2.5q0.5-3.3 1.7-6.3l5.2 0.1q0.9-2.1 2.3-4l-2.7-4.4q2.1-2.6 4.6-4.6l4.4 2.6q1.9-1.3 4-2.3l-0.1-5.1q3-1.2 6.3-1.7l2.5 4.5q1.1-0.1 2.3-0.1 1.2 0 2.3 0.1l2.5-4.5q3.3 0.5 6.3 1.7l-0.1 5.1q2.1 1 4 2.3l4.4-2.6q2.5 2 4.6 4.6l-2.7 4.4q1.4 1.9 2.3 4l5.2-0.1q1.2 3 1.7 6.3l-4.5 2.5q0.1 1.1 0.1 2.3 0 1.1-0.1 2.3zm-15.7-2.3c0-5.7-4.6-10.3-10.3-10.3-5.7 0-10.3 4.6-10.3 10.3 0 5.7 4.6 10.3 10.3 10.3 5.7 0 10.3-4.6 10.3-10.3z"/>
			<path id="&lt;Compound Path&gt;" fill-rule="evenodd" class="s3" d="m667.4 406.8l4.5 2.5q-0.5 3.3-1.7 6.3l-5.2-0.1q-0.9 2.1-2.3 4l2.7 4.4q-2.1 2.5-4.6 4.6l-4.4-2.7q-1.9 1.3-4 2.3l0.1 5.2q-3 1.1-6.3 1.7l-2.5-4.6q-1.1 0.2-2.3 0.2-1.2 0-2.3-0.2l-2.5 4.6q-3.3-0.6-6.3-1.7l0.1-5.2q-2.1-1-4-2.3l-4.4 2.7q-2.5-2.1-4.6-4.6l2.7-4.4q-1.4-1.9-2.3-4l-5.2 0.1q-1.2-3-1.7-6.3l4.5-2.5q-0.1-1.2-0.1-2.3 0-1.2 0.1-2.3l-4.5-2.5q0.5-3.3 1.7-6.3l5.2 0.1q0.9-2.1 2.3-4l-2.7-4.4q2.1-2.6 4.6-4.6l4.4 2.6q1.9-1.3 4-2.3l-0.1-5.1q3-1.2 6.3-1.7l2.5 4.5q1.1-0.1 2.3-0.1 1.2 0 2.3 0.1l2.5-4.5q3.3 0.5 6.3 1.7l-0.1 5.1q2.1 1 4 2.3l4.4-2.6q2.5 2 4.6 4.6l-2.7 4.4q1.4 1.9 2.3 4l5.2-0.1q1.2 3 1.7 6.3l-4.5 2.5q0.1 1.1 0.1 2.3 0 1.1-0.1 2.3zm-15.7-2.3c0-5.7-4.6-10.3-10.3-10.3-5.7 0-10.3 4.6-10.3 10.3 0 5.7 4.6 10.3 10.3 10.3 5.7 0 10.3-4.6 10.3-10.3z"/>
		</g>
	</g>
	<g id="Speech bubbles">
		<g id="&lt;Group&gt;">
			<path id="&lt;Path&gt;" class="s0" d="m593.9 288.5v10.5l-9.9 5.3c-1.8 0.9-1.8 3.3 0 4.3l9.9 5.2v10.5c0 2.3 1.9 4.2 4.3 4.2h35.7c2.4 0 4.3-1.9 4.3-4.2v-35.8c0-2.3-1.9-4.2-4.3-4.2h-35.7c-2.4 0-4.3 1.9-4.3 4.2z"/>
			<g id="&lt;Group&gt;" style="opacity: .9">
				<path id="&lt;Path&gt;" class="s4" d="m606.2 299.4c0.9 0 19.6 0 20.4 0 1.4 0 2.5-1.1 2.5-2.5 0-1.3-1.1-2.5-2.5-2.5-1 0-19.3 0-20.4 0-1.3 0-2.4 1.2-2.4 2.5 0 1.4 1.1 2.5 2.4 2.5z"/>
				<path id="&lt;Path&gt;" class="s4" d="m626.6 303.9c-0.9 0-19.4 0-20.4 0-1.3 0-2.4 1.1-2.4 2.5 0 1.4 1.1 2.5 2.4 2.5 1 0 19.5 0 20.4 0 1.4 0 2.5-1.1 2.5-2.5 0-1.4-1.1-2.5-2.5-2.5z"/>
				<path id="&lt;Path&gt;" class="s4" d="m626.6 313.4c-1.1 0-19.3 0-20.4 0-1.3 0-2.4 1.1-2.4 2.5 0 1.4 1.1 2.5 2.4 2.5 0.8 0 19.6 0 20.4 0 1.4 0 2.5-1.1 2.5-2.5 0-1.4-1.1-2.5-2.5-2.5z"/>
			</g>
		</g>
		<g id="&lt;Group&gt;">
			<path id="&lt;Path&gt;" class="s0" d="m391.8 272.1h8.5l4.4 8.3c1.3 2.4 4.8 2.4 6.1 0l4.4-8.3h8.5c3.4 0 6.2-2.8 6.2-6.2v-31.9c0-3.4-2.8-6.2-6.2-6.2h-31.9c-3.4 0-6.2 2.8-6.2 6.2v31.9c0 3.4 2.8 6.2 6.2 6.2z"/>
			<path id="&lt;Path&gt;" class="s1" d="m407.8 237.4l-9.9 5.7v16.9h7.3v-11.3h5.1v11.3h7.3v-16.9z"/>
		</g>
		<g id="&lt;Group&gt;">
			<path id="&lt;Path&gt;" class="s0" d="m487.6 729.6h-7.7l-4.9-9.3c-1.1-2-3.9-2-5 0l-4.9 9.3h-7.7c-3.9 0-7 3.1-7 7v30.2c0 3.9 3.1 7 7 7h30.2c3.9 0 7-3.1 7-7v-30.2c0-3.9-3.1-7-7-7z"/>
			<path id="&lt;Compound Path&gt;" fill-rule="evenodd" class="s1" d="m478 755c0.5 0.1 1 0.3 1.4 0.7l6.8 6.8c0.9 0.9 0.9 2.5 0 3.4-1 1-2.6 1-3.5 0l-6.8-6.7c-0.4-0.4-0.6-0.9-0.7-1.4-4.2 3-10.1 2.5-13.9-1.2-4.2-4.3-4.2-11.2 0-15.5 4.3-4.2 11.2-4.2 15.5 0 3.7 3.8 4.2 9.7 1.2 13.9zm-3.5-11.6c-3-3-7.9-3-10.9 0-3 3-3 7.9 0 10.9 3 2.9 7.9 2.9 10.9 0 2.9-3 2.9-7.9 0-10.9z"/>
		</g>
	</g>
	<g id="Character 2">
		<path id="&lt;Path&gt;" class="s5" d="m810.6 528.5c0 0-16.3 40.4-32.3 44.7-15.9 4.4-40 0.8-40 0.8l-7.4 2.1-7.3-1.1q-0.2 0-0.3 0l-8.2-0.2c-1.4 0-2.2-1.4-1.4-2.5l2.9-4.1c0.3-0.3 0.6-0.5 1-0.7l7.8-2.5q0.5-0.1 1-0.1l12 1.9c0 0 33.3-5.4 36.7-8.5 3.3-3.1 13.4-35.4 13.4-35.4z"/>
		<path id="&lt;Path&gt;" class="s6" d="m739.1 566.7c-0.5 0.1-0.7 0.1-0.7 0.1l-12-1.9q-0.5 0-1 0.1l-7.8 2.5c-0.4 0.2-0.7 0.4-1 0.7l-2.9 4.1c-0.8 1.1 0 2.5 1.4 2.5l8.2 0.2q0.1 0 0.3 0l4.9 0.7c3.6-1.6 7.2-4.9 10.6-9z"/>
		<path id="&lt;Path&gt;" class="s0" d="m820.4 488.4c-11.8-3.8-28.5 5.1-34.9 42.3l24.6 7.2c0 0 27.2-43.9 10.3-49.5z"/>
		<g id="&lt;Group&gt;">
			<path id="&lt;Path&gt;" class="s7" d="m751.5 439.7c0.1 1.3 0.7 2.2 1.5 2.2 0.8 0 1.5-1 1.4-2.2 0-1.2-0.6-2.2-1.4-2.2-0.8 0-1.5 1-1.5 2.2z"/>
			<path id="&lt;Path&gt;" class="s8" d="m756.4 440.9l-5.8 9.7c0 0 2 2.2 6.3 0.6z"/>
			<path id="&lt;Path&gt;" class="s7" d="m757.5 432.1c-0.2 0.1-0.4 0.2-0.6 0.2-1.6-0.3-3.2 0.2-4.4 1.3-0.2 0.3-0.6 0.3-0.9 0.1-0.2-0.2-0.3-0.6 0-0.9 1.4-1.5 3.5-2.2 5.5-1.8 0.3 0 0.6 0.4 0.5 0.7q0 0.2-0.1 0.4z"/>
			<path id="&lt;Path&gt;" class="s5" d="m798.6 431c0.9 16.3 1.6 23.1-5.5 32.4-11.5 9.9-31 11.5-36.8-4.2-5.2-14.1-5.8-38.3 9.3-46.6 10.7-6 24.2-2.2 30.2 8.6 1.7 3 2.6 6.4 2.8 9.8z"/>
			<path id="&lt;Path&gt;" class="s5" d="m775.9 466.6l4.2 24.1 20-4.7-7-24.6z"/>
			<path id="&lt;Path&gt;" class="s7" d="m761.5 432.2c1-10.6-2.6 1.6-7.5-12.3-4.9-13.9 18.2-25.3 21.8-22.7 3.7 2.6 1.6 6.6 13.8 8.9 12.2 2.2 11.7 14.1 11.7 14.1 0 0 7 3.2 4.5 18.3-2.5 15.1-12 26.5-12 26.5 0 0-4.6-4.8-11.9-0.4 0 0-3.6-2-7.2-7.3-3.2-4.9-4.3-9.6-8.8-10-9.4-0.8-4.8-11.6-4.4-15.1z"/>
			<path id="&lt;Path&gt;" class="s7" d="m800 422c0 0 9.9-6.1 5.5-12.5-4.4-6.4-2.2 7-5.5 12.5z"/>
			<path id="&lt;Path&gt;" class="s9" d="m764.3 438.3c-2.2 2.5-3.3 5.8-3.1 9.1 0.2 4.4 4.6 5.2 8 2.8 3.1-2.2 6.6-7.1 4.6-11-1.9-3.8-6.7-3.9-9.5-0.9z"/>
			<path id="&lt;Path&gt;" class="s6" d="m776.3 468.9l1.7 9.5c-0.1-8.7 4.5-13 4.5-13-4.7 0.7-6.2 3.5-6.2 3.5z"/>
		</g>
		<g id="&lt;Group&gt;">
			<path id="&lt;Path&gt;" class="s0" d="m635.1 564.9h-5.7v-33.9h5.7z"/>
			<path id="&lt;Path&gt;" class="s3" d="m635.1 564.9h-5.7v-33.9h5.7z"/>
		</g>
		<g id="&lt;Group&gt;">
			<path id="&lt;Path&gt;" class="s0" d="m595.7 463.8h-14.3c-5.4 0-9.7 4.3-9.7 9.7v66.2c0 5.4 4.3 9.7 9.7 9.7h14.3z"/>
			<g id="&lt;Group&gt;">
				<path id="&lt;Path&gt;" class="s0" d="m683.1 549.4h-96.7c-5.4 0-9.7-4.3-9.7-9.7v-66.2c0-5.4 4.3-9.7 9.7-9.7h96.7c5.4 0 9.7 4.3 9.7 9.7v66.2c0 5.4-4.3 9.7-9.7 9.7z"/>
				<path id="&lt;Path&gt;" class="s10" d="m683.1 549.4h-96.7c-5.4 0-9.7-4.3-9.7-9.7v-66.2c0-5.4 4.3-9.7 9.7-9.7h96.7c5.4 0 9.7 4.3 9.7 9.7v66.2c0 5.4-4.3 9.7-9.7 9.7z"/>
			</g>
			<path id="&lt;Path&gt;" class="s7" d="m586.4 467.8c-3.2 0-5.7 2.5-5.7 5.7v66.2c0 3.2 2.5 5.7 5.7 5.7h96.7c3.2 0 5.7-2.5 5.7-5.7v-66.2c0-3.2-2.5-5.7-5.7-5.7z"/>
		</g>
		<path id="&lt;Path&gt;" class="s0" d="m611.4 579.1c0-11.6 9.3-20.9 20.9-20.9 11.5 0 20.9 9.3 20.9 20.9z"/>
		<g id="&lt;Group&gt;">
			<path id="&lt;Path&gt;" class="s0" d="m660.7 572h-41.8v6.7h83.6v-2.7z"/>
			<path id="&lt;Path&gt;" class="s11" d="m660.7 572h-41.8v6.7h83.6v-2.7z"/>
			<path id="&lt;Path&gt;" class="s0" d="m660.7 578.7h-41.8v-6.7l41.8 4z"/>
			<path id="&lt;Path&gt;" class="s12" d="m660.7 578.7h-41.8v-6.7l41.8 4z"/>
		</g>
		<g id="&lt;Group&gt;">
			<g id="&lt;Group&gt;">
				<path id="&lt;Path&gt;" class="s7" d="m752.8 812.2h-86.2c-7.2 0-13.1-5.9-13.1-13.1v-198.2c0-7.2 5.9-13.1 13.1-13.1h86.2c1.9 0 3.5 1.6 3.5 3.5 0 2-1.6 3.5-3.5 3.5h-86.2c-3.4 0-6.1 2.8-6.1 6.1v198.2c0 3.3 2.7 6.1 6.1 6.1h86.2c1.9 0 3.5 1.5 3.5 3.5 0 1.9-1.6 3.5-3.5 3.5z"/>
			</g>
			<g id="&lt;Group&gt;" style="opacity: .5">
				<path id="&lt;Path&gt;" class="s4" d="m752.8 812.2h-86.2c-7.2 0-13.1-5.9-13.1-13.1v-198.2c0-7.2 5.9-13.1 13.1-13.1h86.2c1.9 0 3.5 1.6 3.5 3.5 0 2-1.6 3.5-3.5 3.5h-86.2c-3.4 0-6.1 2.8-6.1 6.1v198.2c0 3.3 2.7 6.1 6.1 6.1h86.2c1.9 0 3.5 1.5 3.5 3.5 0 1.9-1.6 3.5-3.5 3.5z"/>
			</g>
		</g>
		<g id="&lt;Group&gt;">
			<path id="&lt;Path&gt;" class="s0" d="m666.3 589h-122.4v-10.3h122.4z"/>
			<path id="&lt;Path&gt;" class="s13" d="m666.3 589h-122.4v-10.3h122.4z"/>
			<path id="&lt;Path&gt;" class="s0" d="m765.1 589h-104.4v-10.3h104.4z"/>
			<path id="&lt;Path&gt;" class="s10" d="m765.1 589h-104.4v-10.3h104.4z"/>
		</g>
		<g id="&lt;Group&gt;">
			<g id="&lt;Group&gt;">
				<path id="&lt;Path&gt;" class="s5" d="m728.5 739.5l5.7 58.4h-13.8l-13.9-56.9z"/>
				<g id="&lt;Group&gt;">
					<path id="&lt;Path&gt;" class="s7" d="m719.1 794.1l17.7 0.3c0.6 0 1.2 0.5 1.3 1.1l3 14.4c0.2 1.3-0.6 2.6-1.8 2.8q-0.3 0.1-0.5 0.1c-6.4-0.2-12.1-0.7-20-0.8-9.3-0.2-7 1-18 1-6.6 0-7.7-7.6-4.9-7.9 12.9-1.4 14.3-5.3 19.3-9.8 1.1-0.9 2.5-1.3 3.9-1.2z"/>
				</g>
				<path id="&lt;Path&gt;" class="s6" d="m732.7 782.6l-4.2-43.1-22 1.5 10.2 41.6z"/>
			</g>
			<path id="&lt;Path&gt;" class="s7" d="m823.2 604.7l-56.7 2.1c0 0-76.4 26.7-78.6 47.3-2.2 21.1 23.5 118.4 23.5 118.4h22.8c0 0-6.3-71.4-8.7-93.2-2.4-21.9 79.6-14.6 93.8-33.3 13.1-17.1 3.9-41.3 3.9-41.3z"/>
			<path id="&lt;Path&gt;" class="s14" d="m823.2 604.7l-56.7 2.1c0 0-76.4 26.7-78.6 47.3-2.2 21.1 23.5 118.4 23.5 118.4h22.8c0 0-6.3-71.4-8.7-93.2-2.4-21.9 79.6-14.6 93.8-33.3 13.1-17.1 3.9-41.3 3.9-41.3z"/>
			<path id="&lt;Path&gt;" class="s0" d="m738.1 769.2l0.5 8h-28.2l-2.8-8z"/>
		</g>
		<g id="&lt;Group&gt;">
			<g id="&lt;Group&gt;">
				<path id="&lt;Path&gt;" class="s5" d="m675.6 742.2l1.6 55.7h-13.6l-8.1-55.7z"/>
				<g id="&lt;Group&gt;">
					<path id="&lt;Path&gt;" class="s7" d="m661.7 794.1l17.6 0.3c0.7 0 1.3 0.5 1.4 1.1l3 14.4c0.2 1.3-0.6 2.6-1.9 2.8q-0.2 0.1-0.5 0.1c-6.3-0.2-12-0.7-19.9-0.8-9.4-0.2-7 1-18 1-6.6 0-7.7-7.6-4.9-7.9 12.9-1.4 14.3-5.3 19.3-9.8 1.1-0.9 2.5-1.3 3.9-1.2z"/>
				</g>
				<path id="&lt;Path&gt;" class="s6" d="m676.7 782.6l-1.1-40.4h-20.1l5.9 40.4c4.3 0.1 10.4 0 15.3 0z"/>
			</g>
			<path id="&lt;Path&gt;" class="s7" d="m798.5 609.4c0 0 4.8 43.2-39.1 45.2-44 2-78.2 7-79.2 22.7-1 15.6 0 95.2 0 95.2h-23.9c0 0-9.3-50.4-12.9-81.6-3.5-30.3-9.9-52.2 21.2-62.5 33-10.9 91.8-21 91.8-21l42.3-2.7z"/>
			<path id="&lt;Path&gt;" class="s0" d="m683.7 769.2l-1.5 8h-26.2l-2.8-8z"/>
		</g>
		<g id="&lt;Group&gt;">
			<path id="&lt;Path&gt;" class="s0" d="m808.1 485.6c0 0 0-9.7-19.7-8.6-20.9 1.2-16.9 10.5-16.9 10.5z"/>
			<path id="&lt;Path&gt;" class="s15" d="m808.1 485.6c0 0 0-9.7-19.7-8.6-20.9 1.2-16.9 10.5-16.9 10.5z"/>
		</g>
		<path id="&lt;Path&gt;" class="s0" d="m826.3 529.2c-1.3 19.2-0.8 77-0.8 77 0 0-42 2.8-75 1.7l-3.8-111.2c0-4 2.4-7.6 6.3-9.1 9.3-3.6 31.2-7.7 65.4-3.2 11.8 1.6 9.5 22.1 7.9 44.8z"/>
		<path id="&lt;Path&gt;" class="s5" d="m753.4 528.5c0 0-16.3 40.4-32.2 44.7-16 4.4-40.1 0.8-40.1 0.8l-7.4 2.1-7.3-1.1q-0.1 0-0.3 0l-8.2-0.2c-1.4 0-2.2-1.4-1.4-2.5l3-4.1c0.2-0.3 0.5-0.5 0.9-0.7l7.9-2.5q0.4-0.1 0.9-0.1l12 1.9c0 0 33.3-5.4 36.7-8.5 3.4-3.1 13.4-35.4 13.4-35.4z"/>
		<path id="&lt;Path&gt;" class="s6" d="m753 509.7c0 0-2.5 3-5.6 7.3l1.1 32.2c12.2-5.4 17.1-36.9 17.1-36.9l-8-5.7z"/>
		<path id="&lt;Path&gt;" class="s0" d="m763.3 488.4c-11.9-3.8-28.6 5.1-34.9 42.3l24.6 7.2c0 0 27.2-43.9 10.3-49.5z"/>
		<g id="&lt;Group&gt;">
			<g id="&lt;Group&gt;">
				<path id="&lt;Path&gt;" class="s7" d="m778.9 729.8h-18.5v-54.3h18.5z"/>
				<path id="&lt;Path&gt;" class="s12" d="m778.9 729.8h-18.5v-54.3h18.5z"/>
				<g id="&lt;Group&gt;">
					<path id="&lt;Path&gt;" class="s7" d="m781.8 778.9v-68.9h-24.3v68.9l-55.1 7.6v7.7l67.3-5.7 67.3 5.7v-7.7z"/>
				</g>
				<g id="&lt;Group&gt;">
					<path id="&lt;Path&gt;" class="s0" d="m708.9 805.7c0 4-3.3 7.3-7.3 7.3-4.1 0-7.3-3.3-7.3-7.3 0-4 3.2-7.3 7.3-7.3 4 0 7.3 3.3 7.3 7.3z"/>
					<path id="&lt;Path&gt;" class="s0" d="m844.3 805.7c0 4-3.3 7.3-7.3 7.3-4.1 0-7.3-3.3-7.3-7.3 0-4 3.2-7.3 7.3-7.3 4 0 7.3 3.3 7.3 7.3z"/>
				</g>
				<path id="&lt;Path&gt;" class="s0" d="m777 805.7c0 4-3.3 7.3-7.3 7.3-4.1 0-7.3-3.3-7.3-7.3 0-4 3.2-7.3 7.3-7.3 4 0 7.3 3.3 7.3 7.3z"/>
				<path id="&lt;Path&gt;" class="s15" d="m760.4 688.9h18.5v-13.4h-18.5z"/>
			</g>
			<g id="&lt;Group&gt;">
				<path id="&lt;Path&gt;" class="s0" d="m842.8 552.6h-60.3c-9.8 0-18 7.5-18.9 17.3l-5.1 54.5c-1.2 12.4-11.3 22-23.7 22.7l-58.2 2.9c-7 0.4-12.6 6.2-12.6 13.3v1.2c0 6.1 4.9 11 11 11h78.7 16 82.5l9.5-102.1c1.1-11.1-7.7-20.8-18.9-20.8z"/>
				<path id="&lt;Path&gt;" class="s16" d="m842.8 552.6h-60.3c-9.8 0-18 7.5-18.9 17.3l-5.1 54.5c-1.2 12.4-11.3 22-23.7 22.7l-58.2 2.9c-7 0.4-12.6 6.2-12.6 13.3v1.2c0 6.1 4.9 11 11 11h78.7 16 82.5l9.5-102.1c1.1-11.1-7.7-20.8-18.9-20.8z"/>
				<path id="&lt;Path&gt;" class="s7" d="m708.7 661.5h-0.3c-2.2 0-4-1.8-4-4v-43.4h8.3v43.4c0 2.2-1.8 4-4 4z"/>
				<path id="&lt;Path&gt;" class="s13" d="m708.7 661.5h-0.3c-2.2 0-4-1.8-4-4v-43.4h8.3v43.4c0 2.2-1.8 4-4 4z"/>
				<g id="&lt;Group&gt;">
					<path id="&lt;Path&gt;" class="s0" d="m744.5 601.5h-18.5v15.3h18.5c4.2 0 7.6-3.4 7.6-7.6 0-4.2-3.4-7.7-7.6-7.7z"/>
					<path id="&lt;Path&gt;" class="s10" d="m744.5 601.5h-18.5v15.3h18.5c4.2 0 7.6-3.4 7.6-7.6 0-4.2-3.4-7.7-7.6-7.7z"/>
					<path id="&lt;Path&gt;" class="s0" d="m737.1 616.8h-64.7c-4.1 0-7.4-3.3-7.4-7.3v-0.6c0-4.1 3.3-7.4 7.4-7.4h64.7c4.1 0 7.4 3.3 7.4 7.4v0.6c0 4-3.3 7.3-7.4 7.3z"/>
					<path id="&lt;Path&gt;" class="s16" d="m737.1 616.8h-64.7c-4.1 0-7.4-3.3-7.4-7.3v-0.6c0-4.1 3.3-7.4 7.4-7.4h64.7c4.1 0 7.4 3.3 7.4 7.4v0.6c0 4-3.3 7.3-7.4 7.3z"/>
				</g>
				<path id="&lt;Path&gt;" class="s0" d="m856.4 675.5h-88.7l9.9-105.6c0.9-9.8 9.1-17.3 19-17.3h60.2c11.2 0 20 9.7 19 20.8l-8.7 92.3c-0.5 5.6-5.1 9.8-10.7 9.8z"/>
				<path id="&lt;Path&gt;" class="s10" d="m856.4 675.5h-88.7l9.9-105.6c0.9-9.8 9.1-17.3 19-17.3h60.2c11.2 0 20 9.7 19 20.8l-8.7 92.3c-0.5 5.6-5.1 9.8-10.7 9.8z"/>
			</g>
		</g>
		<g id="&lt;Group&gt;">
			<g id="&lt;Group&gt;">
				<path id="&lt;Path&gt;" class="s7" d="m649.3 812.2h-86.1c-7.3 0-13.1-5.9-13.1-13.1v-198.2c0-7.2 5.8-13.1 13.1-13.1h86.1c2 0 3.5 1.6 3.5 3.5 0 2-1.5 3.5-3.5 3.5h-86.1c-3.4 0-6.1 2.8-6.1 6.1v198.2c0 3.3 2.7 6.1 6.1 6.1h86.1c2 0 3.5 1.5 3.5 3.5 0 1.9-1.5 3.5-3.5 3.5z"/>
			</g>
			<g id="&lt;Group&gt;" style="opacity: .5">
				<path id="&lt;Path&gt;" class="s4" d="m649.3 812.2h-86.1c-7.3 0-13.1-5.9-13.1-13.1v-198.2c0-7.2 5.8-13.1 13.1-13.1h86.1c2 0 3.5 1.6 3.5 3.5 0 2-1.5 3.5-3.5 3.5h-86.1c-3.4 0-6.1 2.8-6.1 6.1v198.2c0 3.3 2.7 6.1 6.1 6.1h86.1c2 0 3.5 1.5 3.5 3.5 0 1.9-1.5 3.5-3.5 3.5z"/>
			</g>
		</g>
		<g id="&lt;Group&gt;">
			<path id="&lt;Path&gt;" class="s4" d="m592.4 483.6l-6.1-4.1c-0.6-0.4-0.6-1.3 0-1.8l6.1-4c0.4-0.3 1.1-0.2 1.4 0.3 0.3 0.4 0.1 1-0.3 1.3l-5 3.3 5 3.3c0.4 0.3 0.6 0.9 0.3 1.4-0.3 0.4-1 0.6-1.4 0.3z"/>
		</g>
		<g id="&lt;Group&gt;">
			<path id="&lt;Path&gt;" class="s4" d="m605.7 483.3c-0.3-0.5-0.2-1.1 0.2-1.4l5-3.3-5-3.3c-0.4-0.3-0.5-0.9-0.2-1.3 0.3-0.5 0.9-0.6 1.3-0.3l6.1 4c0.6 0.5 0.6 1.4 0 1.8l-6.1 4.1c-0.4 0.3-1 0.1-1.3-0.3z"/>
		</g>
		<g id="&lt;Group&gt;">
			<path id="&lt;Path&gt;" class="s4" d="m597.4 485.9c-0.5-0.1-0.8-0.7-0.6-1.2l4.1-13.1c0.2-0.5 0.7-0.8 1.3-0.6 0.5 0.1 0.8 0.7 0.6 1.2l-4.1 13.1c-0.2 0.5-0.7 0.8-1.3 0.6z"/>
		</g>
		<g id="&lt;Group&gt;">
			<g id="&lt;Group&gt;">
				<path id="&lt;Path&gt;" class="s4" d="m631.4 496h-44.5c-0.6 0-1.1-0.5-1.1-1 0-0.6 0.5-1.1 1.1-1.1h44.5c0.6 0 1 0.5 1 1.1 0 0.5-0.4 1-1 1z"/>
			</g>
			<g id="&lt;Group&gt;">
				<path id="&lt;Path&gt;" class="s4" d="m682.6 496h-44.6c-0.5 0-1-0.5-1-1 0-0.6 0.5-1.1 1-1.1h44.6c0.5 0 1 0.5 1 1.1 0 0.5-0.5 1-1 1z"/>
			</g>
			<g id="&lt;Group&gt;">
				<path id="&lt;Path&gt;" class="s4" d="m612.3 505.2h-25.4c-0.6 0-1.1-0.5-1.1-1.1 0-0.5 0.5-1 1.1-1h25.4c0.6 0 1.1 0.5 1.1 1 0 0.6-0.5 1.1-1.1 1.1z"/>
			</g>
			<g id="&lt;Group&gt;">
				<path id="&lt;Path&gt;" class="s4" d="m660.6 505.2h-41.7c-0.5 0-1-0.5-1-1.1 0-0.5 0.5-1 1-1h41.7c0.6 0 1.1 0.5 1.1 1 0 0.6-0.5 1.1-1.1 1.1z"/>
			</g>
			<g id="&lt;Group&gt;">
				<path id="&lt;Path&gt;" class="s4" d="m654.7 514.3h-67.8c-0.6 0-1.1-0.4-1.1-1 0-0.6 0.5-1 1.1-1h67.8c0.6 0 1 0.4 1 1 0 0.6-0.4 1-1 1z"/>
			</g>
			<g id="&lt;Group&gt;">
				<path id="&lt;Path&gt;" class="s4" d="m675.5 514.3h-14.2c-0.5 0-1-0.4-1-1 0-0.6 0.5-1 1-1h14.2c0.6 0 1 0.4 1 1 0 0.6-0.4 1-1 1z"/>
			</g>
			<g id="&lt;Group&gt;">
				<path id="&lt;Path&gt;" class="s4" d="m618.5 523.5h-31.6c-0.6 0-1.1-0.5-1.1-1 0-0.6 0.5-1.1 1.1-1.1h31.6c0.6 0 1.1 0.5 1.1 1.1 0 0.5-0.5 1-1.1 1z"/>
			</g>
			<g id="&lt;Group&gt;">
				<path id="&lt;Path&gt;" class="s4" d="m664.6 523.5h-39.4c-0.6 0-1.1-0.5-1.1-1 0-0.6 0.5-1.1 1.1-1.1h39.4c0.6 0 1 0.5 1 1.1 0 0.5-0.4 1-1 1z"/>
			</g>
			<g id="&lt;Group&gt;">
				<path id="&lt;Path&gt;" class="s4" d="m631.4 532.7h-44.5c-0.6 0-1.1-0.5-1.1-1.1 0-0.5 0.5-1 1.1-1h44.5c0.6 0 1 0.5 1 1 0 0.6-0.4 1.1-1 1.1z"/>
			</g>
			<g id="&lt;Group&gt;">
				<path id="&lt;Path&gt;" class="s4" d="m669.5 532.7h-31.5c-0.5 0-1-0.5-1-1.1 0-0.5 0.5-1 1-1h31.5c0.5 0 1 0.5 1 1 0 0.6-0.5 1.1-1 1.1z"/>
			</g>
		</g>
	</g>
	<g id="Character 1">
		<g id="&lt;Group&gt;">
			<path id="&lt;Path&gt;" class="s17" d="m282.9 353.6c0.9 9.5-1.2 26.5-8.3 32 11.6 4.2 23.9 11.4 31.7 20.9 7.8-11.4-1-17.8-1-17.8-10.1-3.6-9-11.2-6.4-18.1z"/>
			<path id="&lt;Path&gt;" class="s7" d="m320.8 345.5c-0.1 1.2 0.4 2.2 1.2 2.3 0.8 0.1 1.5-0.8 1.6-2 0.1-1.2-0.4-2.2-1.2-2.3-0.8-0.1-1.5 0.8-1.6 2z"/>
			<path id="&lt;Path&gt;" class="s7" d="m322.1 343.5l2.9-0.5c0 0-1.7 2.1-2.9 0.5z"/>
			<path id="&lt;Path&gt;" class="s18" d="m321.2 346.8c0.8 2.8 2 5.5 3.5 8-1.3 0.7-2.8 0.9-4.3 0.4z"/>
			<path id="&lt;Path&gt;" class="s7" d="m324.2 339.3q0.2 0 0.4-0.3c0.3-0.2 0.2-0.7 0-0.9-1.7-1.6-4-2.2-6.2-1.7-0.3 0.2-0.4 0.6-0.2 1 0.1 0.2 0.3 0.3 0.6 0.3 1.7-0.3 3.5 0.2 4.8 1.4q0.3 0.2 0.6 0.2z"/>
			<path id="&lt;Path&gt;" class="s17" d="m281.9 338c-0.4 14.6-0.9 20.9 5.6 29 9.8 12.3 27.6 9.6 32.4-4.6 4.2-12.9 4.3-34.7-9.2-41.8-13.4-7.1-28.3 2.7-28.8 17.4z"/>
			<path id="&lt;Path&gt;" class="s7" d="m282.6 365.6c-14.3-2.4-10.2-11.5-10.2-11.5-14.2-2.9-3.2-9.8-3.2-9.8-11.8-5.1 0-9.6 0-9.6-11.4-9.4 4.9-12.6 4.9-12.6-4-14.7 9.9-8.7 9.9-8.7 7.6-12.6 14.2-0.6 14.2-0.6 13.3-18.1 16.5-2.8 16.5-2.8 13.7-3.6 8.4 10.7 8.4 10.7 11.2 3 2.4 8.7 2.4 8.7 4.4 5.5-11.3 6.4-11.3 6.4 0 0 7.5 11.9 0 15.3l-18.9 14.5c0 0-8.7-3.6-12.7 0z"/>
			<path id="&lt;Path&gt;" class="s0" d="m296.8 353.8c0 0 9.9-23.9 2.2-44.5l6.6-2.2c0 0 8.6 29.8-8.8 46.7z"/>
			<path id="&lt;Path&gt;" class="s17" d="m306.8 351.2c1.6 3.4 2.2 4.9 4.6 6.1 2.1 1.1 4.7 0.4 5.9-1.7 0.5-0.9 0.6-2 0.4-3.1-0.6-3.4-3.3-8.5-6.9-8.6-3.7-0.1-5.8 3.9-4 7.3z"/>
			<g id="&lt;Group&gt;">
				<path id="&lt;Path&gt;" class="s17" d="m296.4 401.1c0 0 13.6 10 19.1 14l39.1-18.5c-0.1-4.4 2.5-8.5 6.6-10.2l2.8-1.2 5.9-2.6c2.3-1 4.9-0.8 6.9 0.7 2.3 1.7 3.3 4.7 2.5 7.5-1.7 5.7-6.2 10.1-12 11.6l-5.7 1.5c0 0-33.6 25.5-45.6 26.2-11.9 0.6-29.5-11.2-29.5-11.2z"/>
				<path id="&lt;Path&gt;" class="s7" d="m263.9 384.3c10.3-0.1 21.9 6.4 40.1 18.2 0 0-3.5 13-14.1 22.2 0 0-10-2.7-23.2-15.2-16.1-15.1-9.2-25.2-2.8-25.2z"/>
			</g>
			<g id="&lt;Group&gt;">
				<g id="&lt;Group&gt;">
					<path id="&lt;Path&gt;" class="s0" d="m460.3 414.2h-98c-3.6 0-6.2-2.8-5.9-6.4l7.4-84.4c0.3-3.5 3.4-6.4 7-6.4h98c3.5 0 6.2 2.9 5.8 6.4l-7.3 84.4c-0.3 3.6-3.5 6.4-7 6.4z"/>
					<path id="&lt;Path&gt;" class="s19" d="m460.3 414.2h-98c-3.6 0-6.2-2.8-5.9-6.4l7.4-84.4c0.3-3.5 3.4-6.4 7-6.4h98c3.5 0 6.2 2.9 5.8 6.4l-7.3 84.4c-0.3 3.6-3.5 6.4-7 6.4z"/>
				</g>
				<path id="&lt;Path&gt;" class="s3" d="m460.6 410.2c1.4 0 2.5-1 2.7-2.4l7.3-84.4c0.2-1.3-0.8-2.4-2.2-2.4h-98c-1.3 0-2.5 1.1-2.6 2.4l-7.4 84.4c-0.1 1.4 0.9 2.4 2.2 2.4z"/>
				<g id="&lt;Group&gt;">
					<path id="&lt;Path&gt;" class="s0" d="m392.5 360.6l-32 46.4-0.1 0.8c-0.1 1.4 0.9 2.4 2.2 2.4h55.5z"/>
					<path id="&lt;Path&gt;" class="s16" d="m392.5 360.6l-32 46.4-0.1 0.8c-0.1 1.4 0.9 2.4 2.2 2.4h55.5z"/>
				</g>
				<path id="&lt;Path&gt;" class="s0" d="m463.5 404.6l-26.8-51-39.7 56.6h63.6c1.4 0 2.5-1 2.7-2.4z"/>
				<g id="&lt;Group&gt;">
					<path id="&lt;Path&gt;" class="s0" d="m426.4 344.6c-0.5 5-4.9 9-9.8 9-5 0-8.7-4-8.2-9 0.4-4.9 4.8-9 9.7-9 5 0 8.7 4.1 8.3 9z"/>
					<path id="&lt;Path&gt;" class="s19" d="m426.4 344.6c-0.5 5-4.9 9-9.8 9-5 0-8.7-4-8.2-9 0.4-4.9 4.8-9 9.7-9 5 0 8.7 4.1 8.3 9z"/>
				</g>
			</g>
			<g id="&lt;Group&gt;">
				<path id="&lt;Path&gt;" class="s17" d="m181.8 754.7l-10 29.6 15.3 6.2 11.9-27.2z"/>
				<g id="&lt;Group&gt;">
					<path id="&lt;Compound Path&gt;" fill-rule="evenodd" class="s0" d="m192.6 789.8c-0.2-0.1-0.3-0.3-0.3-0.5 0.1-0.2 0.2-0.3 0.4-0.4 0.3 0 7.5-1.6 10.2 0.1 0.5 0.3 0.9 0.8 1 1.3 0.2 0.7 0 1.4-0.5 1.9-1 0.7-3.4 0.4-5.6-0.3q-2.7-0.8-5.2-2.1zm1.5-0.2c3.1 1.4 7.6 2.8 8.7 1.9 0.2-0.1 0.4-0.3 0.2-1 0-0.3-0.3-0.6-0.6-0.8q-0.3-0.2-0.8-0.3c-2.5-0.4-5-0.3-7.5 0.2z"/>
					<path id="&lt;Compound Path&gt;" fill-rule="evenodd" class="s0" d="m192.4 789.7c-0.1-0.2-0.2-0.3-0.1-0.5 0.1-0.2 2-4.8 4.8-5.9 0.8-0.4 1.7-0.4 2.6 0 1.1 0.4 1.2 1.1 1.1 1.6-0.2 2.1-5.6 4.6-8 4.9q-0.1 0-0.2 0-0.1 0-0.2-0.1zm6.7-5.7c-0.5-0.2-1.1-0.2-1.6 0.1-1.7 1.1-3.1 2.7-4 4.6 2.6-0.6 6.3-2.7 6.6-3.9 0-0.2 0-0.5-0.7-0.8z"/>
					<path id="&lt;Path&gt;" class="s7" d="m191.5 786.7l-19.1-5.9c-0.7-0.2-1.5 0.1-1.9 0.8l-8.3 14.5c-0.7 1.3-0.3 2.9 1 3.7q0.2 0.1 0.5 0.2c7 2 13.2 3.5 21.8 6.2 10.2 3.1 7.2 3.5 19.1 7.4 7.2 2.3 11-5.5 8.1-6.8-13.4-6.1-13.6-10.7-17.4-17.4-0.9-1.3-2.2-2.3-3.8-2.7z"/>
				</g>
				<path id="&lt;Path&gt;" class="s20" d="m177 768.9l16 8.1 6-13.7-17.2-8.6z"/>
			</g>
			<path id="&lt;Path&gt;" class="s0" d="m249.4 481.7c0 0-21.5 16.4-16.9 67.9 0.5 4.7 2 9.7 2 15.1 0 3.7-1 6.2-2.1 14.3-1.8 11.9-4.9 56-8.3 61.8-3.3 5.7-4.7 4.7-14 20.5-10.1 17.1-23 47-33.1 97.6 0 0 8.7 6.8 22.5 9.4 0 0 54.9-86.6 66.6-118.9 10.5-28.8 22.9-120.9 22.9-120.9l1-40z"/>
			<path id="&lt;Path&gt;" class="s6" d="m273 549.6h-15.6c0 0-5.1 48.9 11.8 89.8 1.8-6.6 3.5-14.5 5.3-23l6.7-43.1c-0.9-7.3-1.7-12.8-1.8-13.2-0.3-1.1-6.4-10.5-6.4-10.5z"/>
			<g id="&lt;Group&gt;">
				<path id="&lt;Path&gt;" class="s17" d="m270.4 766.6l0.1 31.4 17.7-1.2 2.7-30.2z"/>
				<g id="&lt;Group&gt;">
					<path id="&lt;Compound Path&gt;" fill-rule="evenodd" class="s0" d="m290.2 796.3c-0.1 0-0.3-0.2-0.3-0.4-0.1-0.1 0-0.3 0.2-0.4 0.3-0.2 6.5-4.1 9.6-3.3 0.6 0.1 1.1 0.4 1.4 0.9 0.5 0.6 0.5 1.3 0.1 1.9-0.7 1-3 1.5-5.3 1.6q-2.9 0.1-5.7-0.3zm1.4-0.6c3.5 0.3 8.1 0.1 8.9-1.2 0.1-0.1 0.2-0.4-0.1-0.9-0.2-0.3-0.5-0.5-0.9-0.6q-0.4-0.1-0.8-0.1c-2.5 0.5-4.9 1.4-7.1 2.8z"/>
					<path id="&lt;Compound Path&gt;" fill-rule="evenodd" class="s0" d="m290 796.3c-0.1-0.1-0.2-0.3-0.2-0.4 0-0.2 0.3-5.2 2.6-7.2 0.7-0.6 1.5-0.9 2.4-0.9 1.2 0.1 1.6 0.7 1.7 1.2 0.4 2.1-3.8 6.2-6 7.3q-0.1 0-0.2 0-0.1 0-0.3 0zm4.5-7.6c-0.5 0-1 0.2-1.4 0.6-1.4 1.6-2.1 3.6-2.3 5.7 2.2-1.4 5-4.6 4.9-5.9-0.1-0.1-0.1-0.4-0.9-0.5z"/>
					<path id="&lt;Path&gt;" class="s7" d="m288.3 793.8l-20.1 0.7c-0.7 0-1.4 0.6-1.5 1.3l-3 16.5c-0.3 1.4 0.6 2.8 2.1 3.1q0.3 0.1 0.6 0.1c7.2-0.4 13.6-1.1 22.6-1.4 10.6-0.3 8 1 20.4 0.8 7.6-0.2 8.6-8.8 5.4-9.1-14.6-1.3-16.3-5.7-22.1-10.7-1.3-1-2.8-1.4-4.4-1.3z"/>
				</g>
				<path id="&lt;Path&gt;" class="s20" d="m270.5 782.9l19-0.4 1.4-15.9h-20.5z"/>
			</g>
			<path id="&lt;Path&gt;" class="s0" d="m261.4 475.9c0 0-21.4 28.5-5.5 84.1l17.9 81.2c0 0-17.1 36.9-8.1 134.3 0 0 13.6 2.2 26.5-0.6 0 0 20-102.9 23-137.6 3.4-38.3 1.4-153.7 1.4-153.7z"/>
			<g id="&lt;Group&gt;">
				<path id="&lt;Path&gt;" class="s7" d="m274.4 383.9c0 0-3.3-14.2 18-8 21.3 6.2 19.5 18.3 19.5 18.3z"/>
				<path id="&lt;Path&gt;" class="s21" d="m274.4 383.9c0 0-3.3-14.2 18-8 21.3 6.2 19.5 18.3 19.5 18.3z"/>
			</g>
			<path id="&lt;Path&gt;" class="s7" d="m327.3 419.4c0 5-2.1 12.2-4 20.2-0.9 3.9-1.8 7.8-2.3 11.9-3.1 22-4 45.2-4 45.2 0 0-34.9 9.7-68.7-13.7 0 0 8.4-7.1 6.6-56.2-0.7-22.2-8.7-48.5 27.9-44.4 30.9 3.5 41.3 13.1 43.8 28.1q0 0.3 0.1 0.6 0.1 0.7 0.2 1.4 0.4 3.3 0.4 6.9z"/>
			<path id="&lt;Path&gt;" class="s21" d="m327.3 419.4c0 5-2.1 12.2-4 20.2-8.4-10-16.8-28.9-16.8-28.9l6.9-10.1 12.2 5.6q0.6 2.1 1 4.3 0 0.3 0.1 0.6 0.1 0.7 0.2 1.4 0.4 3.3 0.4 6.9z"/>
			<path id="&lt;Path&gt;" class="s17" d="m339.9 410.7c0 0 11.9 11.9 16.7 16.6l41.5-12.4c0.6-4.4 3.8-8 8.1-9.1l2.9-0.8 6.3-1.7c2.3-0.7 4.8 0 6.6 1.7 2.1 2 2.6 5.2 1.4 7.8-2.5 5.4-7.7 9.1-13.6 9.7l-5.9 0.6c0 0-37 20.3-48.9 19.1-11.9-1.1-27.6-15.4-27.6-15.4z"/>
			<path id="&lt;Path&gt;" class="s7" d="m310.2 389.2c10.2 1.5 20.7 9.6 36.9 24 0 0-5.3 12.3-17.1 19.8 0 0-9.5-4.1-20.8-18.5-13.6-17.3-5.3-26.2 1-25.3z"/>
		</g>
	</g>
</svg>